
<svg xmlns="http://www.w3.org/2000/svg" width="200" height="200" fill="none">
  <path fill="#45C1C4" d="M193 13H17c-2 0-4 2-4 4v172c0 4 4 5 6 4l54-38 2-1h118c2 0 4-2 4-4V17c0-2-2-4-4-4z"/>
  <path fill="#fff" d="M79 79V49c0-2 2-4 4-2l27 15c2 1 2 4 0 6L83 82c-2 1-4-1-4-3z"/>
  <path stroke="#000" stroke-width="5" d="M20 126h31m20 0h71m9 0h5m6 0h6m6 0h5m-119-6v10m113-20H23c-2 0-3-1-3-3V21c0-2 1-3 3-3h150c2 0 3 1 3 3v86c0 2-1 3-3 3zm-63-43L82 82c-2 1-4 0-4-3V47c0-2 2-3 4-2l29 17c2 1 2 4-1 5zM11 184l55-39h120c2 0 3-2 3-3V10c0-2-1-3-3-3H9c-2 0-3 1-3 3v171c0 3 3 4 5 3z"/>
</svg>