<svg xmlns="http://www.w3.org/2000/svg" width="200" height="200" fill="none">
  <path fill="#3FC5C6" d="M63 165.4v18.4a3 3 0 0 1-5.2 2.1l-31.4-31.2a3 3 0 0 0-2.1-.8H16a3 3 0 0 1-3-3V42.3a3 3 0 0 1 3-3h63.7a3 3 0 0 0 3-3V20a3 3 0 0 1 3-3H195a3 3 0 0 1 3 3v115a3 3 0 0 1-3 3h-18.4a3 3 0 0 0-2.2.9l-24.3 25.7a3 3 0 0 1-5.2-2l-.7-19.6a3 3 0 0 0-3-3h-12.8a3 3 0 0 0-3 3v16.4a3 3 0 0 1-3 3H65.9a3 3 0 0 0-3 3z"/>
  <path stroke="#000" stroke-width="5" d="M128.5 130.7h10.8a4 4 0 0 1 4 4v16.2a4 4 0 0 0 7 2.6l19.2-21.5a4 4 0 0 1 3-1.3h16.3a4 4 0 0 0 4-4V14a4 4 0 0 0-4-4h-108a4 4 0 0 0-4 4v36.4a4 4 0 0 1-.4 1.7L60.6 84.7a4 4 0 0 0 3.6 5.7h8.6a4 4 0 0 1 4 4v32.3a4 4 0 0 0 4 4h26.6M66.2 33.3H8a4 4 0 0 0-4 4V150a4 4 0 0 0 4 4h14.3a4 4 0 0 1 3 1.3L46.5 179a4 4 0 0 0 7-2.7V158a4 4 0 0 1 4-4H115a4 4 0 0 0 4-4v-35.4a4 4 0 0 1 4-4h9a4 4 0 0 0 3.6-5.6l-16.3-38.1a4 4 0 0 1-.3-1.6v-28a4 4 0 0 0-4-4H88.4m-69.6 18h39m-39 11.6h39m-39 12.7H44M138 44h39m-39 13.7h25.3M138 33.3h39"/>
</svg>