<svg xmlns="http://www.w3.org/2000/svg" width="200" height="200" fill="none">
  <path fill="#49C2C4" d="M136 150c0-19 29-40 28-73a55 55 0 0 0-110 0c0 38 29 56 28 73h54z"/>
  <path stroke="#49C2C4" stroke-width="8" d="M92 91l6 57m27-57l-6 57m-49 10h12m66 0H82m0 0v7m0 11v-11m-4 8h70m-12 18H84v-8h52M31 77h9m2-15l-9-5m18-14l-9-7m22-7l-8-8m24-4l-6-8m24 4V2m21 11V2m17 15l6-8m11 20l7-8m7 22l8-7m0 26l10-5m-7 20h9m-39 88H82m54 11H84m80-99c1 33-28 54-28 73H82c1-17-28-35-28-73 8-75 106-67 110 0z"/>
  <path stroke="#000" stroke-width="8" d="M76 91l7 57m26-57l-5 57m-49 10h11m66 0H66m0 0v18m-11 0h77m-63 18h49M15 77h9m2-15l-8-5m17-14l-9-7m22-7l-7-8m23-4l-5-8m24 4V2m21 11V2m16 15l7-8m11 20l6-8m7 22l8-7m0 26l10-5m-7 20h9m-23 0c2 33-28 54-28 73H66c1-17-27-35-27-73 8-75 106-67 109 0z"/>
</svg>