<svg xmlns="http://www.w3.org/2000/svg" width="200" height="200" fill="none">
  <path fill="#42C2C5" d="M24 176l-5-84h66a84 84 0 0 0 20-37l2-25c1-5 7-10 15-9 13 2 23 26 17 59h44l5 1c11 3 11 21 5 25l-1 2c0 6 0 12-5 17v1c0 8 1 17-6 22l-1 1c0 8-3 18-11 22H79v5H24z"/>
  <path stroke="#000" stroke-width="7" d="M18 98h33v51h-2c-11-12-18 6-7 10m31-74c7-4 24-34 24-39V18v-1c8-12 21-6 24-1 2 2 8 15 8 19v22l-4 16h55c6 0 8 7 8 12 0 10-3 13-7 13h-13m-5 21h13c5 0 6-7 6-12m-23 32h13c6-2 5-8 5-12M75 163h86c7-3 10-9 10-14M5 85h57v84H11L5 85z"/>
</svg>